<svg width="44" height="44" viewBox="0 0 44 44" fill="none" xmlns="http://www.w3.org/2000/svg">
<g clip-path="url(#clip0_1_369)">
<path d="M2.75 0H41.25C42.7666 0 44 1.23337 44 2.75V41.25C44 42.7666 42.7666 44 41.25 44H2.75C1.23338 44 0 42.7666 0 41.25V2.75C0 1.23337 1.23338 0 2.75 0ZM2.75 41.25L41.25 41.2514V2.75H2.75V41.25Z" fill="#F6623E"/>
<path d="M16.903 14.7221L18.8472 12.7779L27.0972 21.0279C27.6348 21.5655 27.6348 22.4345 27.0972 22.9721L18.8472 31.2221L16.903 29.2779L24.1808 22L16.903 14.7221Z" fill="#F6623E"/>
</g>
<defs>
<clipPath id="clip0_1_369">
<rect width="44" height="44" fill="white" transform="matrix(-1 0 0 1 44 0)"/>
</clipPath>
</defs>
</svg>
