<svg width="66" height="73" viewBox="0 0 66 73" fill="none" xmlns="http://www.w3.org/2000/svg">
<circle cx="43.5" cy="50.5" r="22.5" fill="#F6623E"/>
<path d="M48.8824 20.6694H41.9206V16.4541C41.9206 7.38117 34.5394 0 25.4666 0C16.3938 0 9.01264 7.38117 9.01264 16.4541V20.6694H2.05078C0.918203 20.6694 0 21.5876 0 22.7202V67.9492C0 69.0818 0.918203 70 2.05078 70H48.8824C50.015 70 50.9332 69.0818 50.9332 67.9492V22.7202C50.9332 21.5875 50.015 20.6694 48.8824 20.6694ZM13.1142 16.4541C13.1142 9.64277 18.6554 4.10156 25.4666 4.10156C32.2778 4.10156 37.819 9.64277 37.819 16.4541V20.6694H33.9448V16.2118C33.9448 11.537 30.1416 7.73363 25.4666 7.73363C20.7918 7.73363 16.9884 11.5369 16.9884 16.2118V20.6694H13.1142V16.4541ZM29.8432 20.6694H21.09V16.2118C21.09 13.7986 23.0534 11.8352 25.4666 11.8352C27.8798 11.8352 29.8432 13.7985 29.8432 16.2118V20.6694ZM8.0109 48.1221H4.10156V42.5474H8.0109V48.1221ZM4.10156 52.2237H8.0109V57.7985H4.10156V52.2237ZM8.0109 38.4457H4.10156V32.871H8.0109V38.4457ZM46.8316 65.8984H4.10156V61.9001H10.0617C11.1943 61.9001 12.1125 60.9819 12.1125 59.8493V30.8202C12.1125 29.6877 11.1943 28.7695 10.0617 28.7695H4.10156V24.771H46.8316V65.8984Z" fill="#454545"/>
<path d="M28.5569 42.2832C26.6697 41.616 24.5822 40.8101 23.4097 39.8904C23.0331 39.595 22.8694 38.9225 23.0023 38.2172C23.1385 37.4946 23.624 36.62 24.5781 36.3327C26.5353 35.743 27.8778 36.5257 28.3644 36.8894C29.2714 37.5676 30.5566 37.3821 31.235 36.4751C31.9132 35.568 31.7277 34.283 30.8206 33.6047C30.3827 33.2773 29.2822 32.5576 27.7046 32.2131V31.3389C27.7046 30.2063 26.7864 29.2881 25.6538 29.2881C24.5213 29.2881 23.6031 30.2063 23.6031 31.3389V32.3473C23.5339 32.3664 23.465 32.3845 23.3951 32.4055C21.125 33.0894 19.43 35.0252 18.9716 37.4577C18.5498 39.6957 19.2804 41.8644 20.8783 43.1177C22.1995 44.1541 24.028 45.0326 27.1897 46.1504C29.3202 46.9035 29.274 48.6286 29.1551 49.3354C28.9147 50.765 27.7123 52.3099 25.64 52.3236C23.6188 52.3364 22.9882 52.2369 21.4336 51.2201C20.4859 50.6 19.2148 50.8659 18.5948 51.8136C17.9748 52.7615 18.2405 54.0324 19.1883 54.6526C20.862 55.7476 22.0944 56.1878 23.6029 56.3462V57.3276C23.6029 58.4602 24.5211 59.3784 25.6537 59.3784C26.7863 59.3784 27.7045 58.4602 27.7045 57.3276V56.1502C28.8566 55.837 29.9065 55.2603 30.8028 54.4368C32.0642 53.2777 32.9155 51.7077 33.2 50.0155C33.7782 46.5765 31.9121 43.4691 28.5569 42.2832Z" fill="#454545"/>
</svg>
