<svg width="84" height="74" viewBox="0 0 84 74" fill="none" xmlns="http://www.w3.org/2000/svg">
<circle cx="61.5" cy="51.4935" r="22.5" fill="#F6623E"/>
<path d="M47.6305 26.2706C47.3764 26.0163 47.0236 25.87 46.6641 25.87C46.3045 25.87 45.9518 26.0161 45.6975 26.2706C45.4432 26.525 45.2969 26.8776 45.2969 27.2372C45.2969 27.5968 45.443 27.9495 45.6975 28.2037C45.9518 28.4579 46.3045 28.6044 46.6641 28.6044C47.0236 28.6044 47.3764 28.4579 47.6305 28.2037C47.8848 27.9495 48.0313 27.5968 48.0313 27.2372C48.0313 26.8776 47.885 26.5249 47.6305 26.2706Z" fill="#454545" stroke="#454545"/>
<path d="M43.4047 46.2729C41.4452 46.2729 39.8511 44.8829 39.8511 43.1743C39.8511 41.4657 41.4452 40.0756 43.4047 40.0756C45.3641 40.0756 46.9581 41.4657 46.9581 43.1743C46.9581 43.9293 47.5704 44.5415 48.3253 44.5415C49.0803 44.5415 49.6925 43.9293 49.6925 43.1743C49.6925 40.3936 47.5835 38.0625 44.7719 37.4817V37.3446C44.7719 36.5896 44.1596 35.9774 43.4047 35.9774C42.6497 35.9774 42.0375 36.5896 42.0375 37.3446V37.4817C39.2257 38.0625 37.1167 40.3936 37.1167 43.1743C37.1167 46.3906 39.9375 49.0073 43.4047 49.0073C45.3641 49.0073 46.9581 50.3975 46.9581 52.106C46.9581 53.8146 45.3641 55.2048 43.4047 55.2048C41.4452 55.2048 39.8511 53.8147 39.8511 52.1062C39.8511 51.3512 39.2389 50.739 38.4839 50.739C37.7289 50.739 37.1167 51.3512 37.1167 52.1062C37.1167 54.8869 39.2257 57.2178 42.0375 57.7986V58.1452C42.0375 58.9002 42.6497 59.5124 43.4047 59.5124C44.1596 59.5124 44.7719 58.9002 44.7719 58.1452V57.7985C47.5835 57.2177 49.6925 54.8868 49.6925 52.106C49.6925 48.8897 46.8717 46.2729 43.4047 46.2729Z" fill="#454545" stroke="#454545"/>
<path d="M61.894 27.2671L53.8049 17.1538L57.8572 9.19913C58.7464 7.45363 58.4023 5.45494 56.9807 4.10744C55.559 2.7598 53.5447 2.52327 51.8491 3.50451C51.2844 3.83154 50.565 3.77453 50.0607 3.36437C46.197 0.214225 40.5851 0.209987 36.7068 3.363C36.2005 3.77466 35.4812 3.83154 34.9166 3.50437C33.2211 2.52314 31.2068 2.75966 29.7851 4.10744C28.3635 5.45494 28.0194 7.45377 28.9086 9.19913L32.9745 17.1802L28.263 23.0706C27.7915 23.6603 27.887 24.5205 28.4767 24.9924C29.0665 25.464 29.9266 25.3682 30.3984 24.7787L35.2555 18.7062H45.297V22.5429C45.297 23.2979 45.9092 23.9101 46.6642 23.9101C47.4191 23.9101 48.0313 23.2979 48.0313 22.5429V18.7062H50.1163V32.3638C50.1163 33.1188 50.7285 33.731 51.4835 33.731C52.2385 33.731 52.8507 33.1188 52.8507 32.3638V20.3384L59.7584 28.9749C65.2444 35.8338 68.2658 44.4482 68.2658 53.231C68.2658 61.514 61.527 68.2527 53.244 68.2527H33.5565C28.6062 68.2527 24.0914 65.8909 21.2754 61.8839C26.2985 59.2327 29.5903 56.5422 31.5112 53.5444C33.6094 50.2697 33.8484 47.0271 33.9307 43.4318C33.931 43.4213 33.9311 43.4109 33.9311 43.4005V32.0404C33.9311 31.5065 33.6203 31.0214 33.1353 30.7983L18.0368 23.8529C17.6743 23.686 17.2568 23.686 16.8943 23.8529L1.79584 30.7983C1.31076 31.0214 1 31.5065 1 32.0404V43.4005C1 43.4109 1.00014 43.4213 1.00041 43.4318C1.08285 47.0271 1.32184 50.2697 3.41993 53.5444C5.72651 57.1442 10.0076 60.3009 16.8926 63.4785C17.0743 63.5623 17.27 63.6043 17.4655 63.6043C17.661 63.6043 17.8566 63.5623 18.0383 63.4785C18.2991 63.3582 18.5547 63.2379 18.8079 63.1176C20.3209 65.3693 22.3392 67.2612 24.6915 68.619C27.3753 70.1682 30.4408 70.987 33.5564 70.987H53.2439C63.0346 70.987 71 63.0216 71 53.2309C71.0001 43.8298 67.7662 34.6088 61.894 27.2671ZM51.3386 15.9718H35.4275L31.3451 7.95799C30.8473 6.98086 31.465 6.28277 31.6662 6.09205C31.8675 5.90119 32.5985 5.32218 33.5466 5.87098C35.0875 6.76279 37.0503 6.60775 38.442 5.47627C41.3096 3.14548 45.469 3.14849 48.3343 5.48488C49.7157 6.60762 51.6786 6.76293 53.2191 5.87111C54.1678 5.3215 54.8985 5.90119 55.0997 6.09205C55.301 6.28277 55.9187 6.98086 55.421 7.95799L51.3386 15.9718ZM17.4656 60.7284C3.99838 54.3749 3.86932 49.275 3.73438 43.385V32.9165L17.4656 26.6L31.1969 32.9165V43.385C31.0618 49.275 30.9329 54.3749 17.4656 60.7284Z" fill="#454545" stroke="#454545"/>
<path d="M26.1948 39.1128C25.6609 38.5791 24.7955 38.5791 24.2615 39.1128L16.5999 46.7744L13.3565 43.531C12.8225 42.9973 11.957 42.9973 11.4229 43.531C10.889 44.0649 10.889 44.9306 11.4229 45.4647L15.633 49.6748C15.9 49.9417 16.2499 50.0752 16.5997 50.0752C16.9496 50.0752 17.2995 49.9417 17.5665 49.6748L26.1948 41.0465C26.7287 40.5126 26.7287 39.6469 26.1948 39.1128Z" fill="#454545" stroke="#454545"/>
</svg>
